# xmcd
#
# Track frame offsets: 
#        150
#        15935
#        29352
#        45168
#        64094
#        88774
#        103616
#        119254
#        137792
#        155803
#        184001
#        201963
#        223532
#        240408
#
# Disc length: 3424 seconds
#
# Revision: 0
# Processed by: cddbd v1.5.2PL0 Copyright (c) Steve Scherf et al.
# Submitted via: ExactAudioCopy v0.99pb3
#
DISCID=b70d5e0e
DTITLE=Cafe Blues - Bir ahsham
DYEAR=1900
DGENRE=Blues
TTITLE0=Bir ahsham tacsida
TTITLE1=Sari Gelin
TTITLE2=Bagishla
TTITLE3=Sajlarina gul duzum
TTITLE4=Neyleyim
TTITLE5=Kepenek
TTITLE6=Bilmazdim
TTITLE7=Girdim yarin bagchasinda
TTITLE8=Taleyim menim
TTITLE9=Menim dunyam
TTITLE10=Hatira
TTITLE11=Bayatilar
TTITLE12=Lachin
TTITLE13=Kuchalara su sapmisham
EXTD=
EXTT0=
EXTT1=
EXTT2=
EXTT3=
EXTT4=
EXTT5=
EXTT6=
EXTT7=
EXTT8=
EXTT9=
EXTT10=
EXTT11=
EXTT12=
EXTT13=
PLAYORDER=
